<?xml version="1.0" standalone="no"?>
<!DOCTYPE svg PUBLIC "-//W3C//DTD SVG 20010904//EN"
 "http://www.w3.org/TR/2001/REC-SVG-20010904/DTD/svg10.dtd">
<svg version="1.0" xmlns="http://www.w3.org/2000/svg"
 width="260.000000pt" height="260.000000pt" viewBox="0 0 260.000000 260.000000"
 preserveAspectRatio="xMidYMid meet">
<metadata>
Created by potrace 1.11, written by Peter Selinger 2001-2013
</metadata>
<g transform="translate(0.000000,260.000000) scale(0.100000,-0.100000)"
fill="#000000" stroke="none">
<path d="M0 1300 l0 -1300 1300 0 1300 0 0 1300 0 1300 -1300 0 -1300 0 0
-1300z m1370 635 c0 -144 0 -145 -22 -145 -18 0 -29 13 -51 60 -49 105 -123
129 -403 130 -114 0 -155 -3 -170 -14 -18 -13 -19 -28 -19 -238 l0 -223 170 1
c95 0 188 6 211 12 51 15 85 50 105 110 11 34 22 48 37 50 l22 3 0 -230 0
-231 -23 0 c-18 0 -26 10 -40 49 -21 59 -70 106 -129 122 -24 6 -113 12 -198
13 l-155 1 0 -240 c0 -262 5 -293 53 -315 15 -6 51 -14 80 -17 46 -5 52 -8 52
-29 l0 -24 -305 0 -305 0 0 25 c0 22 4 25 35 25 48 0 101 23 117 52 19 34 19
1052 0 1086 -16 29 -69 52 -117 52 -32 0 -35 2 -35 30 l0 30 545 0 545 0 0
-145z m490 -280 c0 -19 -5 -25 -21 -25 -23 0 -61 -18 -71 -34 -12 -18 0 -43
66 -138 l61 -89 62 68 c82 90 100 124 85 157 -8 17 -22 27 -47 32 -28 5 -35
11 -35 30 l0 24 175 0 175 0 0 -24 c0 -18 -9 -27 -43 -40 -50 -19 -113 -81
-230 -226 l-85 -104 135 -201 c146 -215 180 -255 218 -255 18 0 25 -5 25 -20
0 -19 -7 -20 -245 -20 -238 0 -245 1 -245 20 0 11 6 20 13 20 33 0 87 22 87
36 0 8 -33 64 -74 125 l-73 110 -65 -78 c-95 -115 -108 -134 -108 -153 0 -19
39 -40 75 -40 20 0 25 -5 25 -25 l0 -25 -175 0 -175 0 0 23 c0 19 8 26 40 36
21 6 53 23 70 38 59 49 262 294 256 308 -7 20 -244 365 -269 392 -10 12 -35
29 -53 38 -25 12 -34 22 -34 40 l0 25 240 0 240 0 0 -25z"/>
</g>
</svg>
