<svg id="icon-cfds.svg_1_" xmlns="http://www.w3.org/2000/svg" viewBox="0 0 58 58"><style>.st0{fill:#f41112}</style><path class="st0" d="M40.9 25c-5.7 0-10 1.2-13.8 2.2-3.3.9-6.5 1.8-10.3 1.8-7.5 0-15.1-3.8-15.2-3.8L0 28.6c.3.2 8.5 4.2 16.9 4.2 4.3 0 7.7-.9 11.3-1.9 3.7-1 7.6-2.1 12.8-2.1 9.3 0 14.9 3.7 15 3.7l2.1-3.1c-.4-.2-6.7-4.4-17.2-4.4zM16 7.8v15.1h3.8V7.8l3.7 4.3 2.8-2.5L17.9 0 9.4 9.6l2.8 2.5L16 7.8zM37.9 16v6.9h4V16l3.6 4.1 2.8-2.5L39.9 8l-8.4 9.6 2.8 2.5 3.6-4.1zm3.9 34.1v-15H38v15.1l-3.7-4.3-2.8 2.5 8.4 9.6 8.4-9.6-2.8-2.5-3.7 4.2zM19.9 42v-6.9h-4V42l-3.6-4.1-2.8 2.5 8.4 9.6 8.4-9.6-2.8-2.5-3.6 4.1z" id="icon-cfds.svg"/></svg>