<svg xmlns="http://www.w3.org/2000/svg" viewBox="0 0 60 52"><style>.st0{enable-background:new}.st1{fill:#f41112}</style><g id="icon-signals.svg_1_" class="st0"><path class="st1" d="M52 13V0h-4c-.1.1-6.1 8-15 8H15.5C11.1 8 8 9.7 6.4 13.1c-3.6.5-6.4 3.6-6.4 7.4s2.8 6.9 6.4 7.4c1.4 2.8 3.7 4.5 7.1 4.9l6 19.1h13.2l-6-19H33c8.9 0 14.9 7.9 15 8h4V29c4.4 0 8-3.6 8-8s-3.6-8-8-8zM4 20.5c0-1 .4-1.9 1.1-2.6-.1.8-.1 1.7-.1 2.6s0 1.8.1 2.6c-.7-.7-1.1-1.6-1.1-2.6zM27.3 48h-4.8l-4.7-15h4.8l4.7 15zM44 32V13l-4 2v15.2c-2.1-.7-4.4-1.2-7-1.2H15.5C10.9 29 9 26.5 9 20.5s1.9-8.5 6.5-8.5H33c6.7 0 11.9-3.2 15-5.8v28.5c-1.1-.8-2.4-1.8-4-2.7zm8-7v-8c2.2 0 4 1.8 4 4s-1.8 4-4 4z" id="icon-signals.svg"/></g></svg>