<svg xmlns="http://www.w3.org/2000/svg" width="30" height="30" viewBox="0 0 30 30"><defs><style>.cls-1{fill:#606a70;fill-rule:evenodd}</style></defs><path id="social-linkedin.svg" class="cls-1" d="M1373 4931a15 15 0 1 0-15-15 15.005 15.005 0 0 0 15 15zm0-.99a14.015 14.015 0 1 0-14.01-14.01 14.007 14.007 0 0 0 14.01 14.01zm-7.01-16.81v8.6h2.79v-8.6h-2.79zm1.58-4.21a1.487 1.487 0 1 0-.04 2.97h.02a1.487 1.487 0 1 0 .02-2.97zm8.23 4.21a2.745 2.745 0 0 0-2.51 1.42v-1.22h-2.79c.04.8 0 8.6 0 8.6h2.79v-4.81a2.063 2.063 0 0 1 .09-.69 1.524 1.524 0 0 1 1.43-1.05c1.01 0 1.41.79 1.41 1.95v4.6h2.79v-4.93c0-2.64-1.38-3.87-3.21-3.87z" transform="translate(-1358 -4901)"/></svg>