<svg xmlns="http://www.w3.org/2000/svg" width="30" height="30" viewBox="0 0 30 30"><defs><style>.cls-1{fill:#606a70;fill-rule:evenodd}</style></defs><path id="social-yuotube.svg" class="cls-1" d="M1348 4916a15 15 0 1 0-15 15 15 15 0 0 0 15-15zm-16-3.02l4.01 2.52-4.01 2.51v-5.03zm15.01 3.02a14.01 14.01 0 1 0-14.01 14.01 14.015 14.015 0 0 0 14.01-14.01zm-6.27 3.39a1.865 1.865 0 0 1-1.62 1.42 83.212 83.212 0 0 1-11.24 0 1.865 1.865 0 0 1-1.62-1.42 14.207 14.207 0 0 1-.27-3.39 14.874 14.874 0 0 1 .27-3.4 1.878 1.878 0 0 1 1.62-1.41 79.061 79.061 0 0 1 11.24 0 1.867 1.867 0 0 1 1.62 1.41 14.327 14.327 0 0 1 .26 3.4 14.739 14.739 0 0 1-.26 3.39z" transform="translate(-1318 -4901)"/></svg>