<svg xmlns="http://www.w3.org/2000/svg" width="30" height="30" viewBox="0 0 30 30"><defs><style>.cls-1{fill:#606a70;fill-rule:evenodd}</style></defs><path id="social-google.svg" class="cls-1" d="M1413 4901a15 15 0 1 0 15 15 15 15 0 0 0-15-15zm0 .98a14.015 14.015 0 1 0 14.01 14.02 14.015 14.015 0 0 0-14.01-14.02zm8.11 11.93v3.2h-1.35v-3.2h-3.16v-1.33h3.16v-3.18h1.35v3.18h2.42a13.874 13.874 0 0 1 .46 1.33h-2.88zm-16.03 9.19a12.092 12.092 0 0 1 5.42-1.3 2.974 2.974 0 0 1-.86-1.94 2.5 2.5 0 0 1 .29-1.1c-.32.03-.62.06-.91.06a4.488 4.488 0 0 1-4.7-4.46 5.138 5.138 0 0 1 1.81-3.81 7.737 7.737 0 0 1 5.07-1.56h5.84l-1.82 1.02h-1.75a4.8 4.8 0 0 1 2.01 3.84c0 2.1-1.19 3.09-2.37 4.03a1.973 1.973 0 0 0-.8 1.39 1.554 1.554 0 0 0 .73 1.22l1.02.8c1.26 1.04 2.39 2.01 2.39 3.97 0 1.29-.35 3.91-2.79 4.59a12.258 12.258 0 0 1-1.93.16 3.774 3.774 0 0 0 2.81-3.64c0-1.45-.93-2.21-3.08-3.76-.23-.02-.37-.02-.66-.02a11.592 11.592 0 0 0-2.97.45c-.62.23-1.8.41-2.43 2.93a8.957 8.957 0 0 0-.35 1.82c-2.99-2.22-2-2.3-1.62-3.09a4.669 4.669 0 0 1 1.65-1.6zm4.34-13.17a2.678 2.678 0 0 0-1.99.94 3.322 3.322 0 0 0-.62 2.09c0 1.91 1.1 5.06 3.55 5.06a2.926 2.926 0 0 0 1.92-.79 2.873 2.873 0 0 0 .7-2.07c0-2.06-1.21-5.23-3.56-5.23z" transform="translate(-1398 -4901)"/></svg>