<svg version="1" xmlns="http://www.w3.org/2000/svg" width="346.667" height="346.667" viewBox="0 0 260.000000 260.000000"><path d="M0 130v130h260V0H0v130zm137-63.5c0 14.4 0 14.5-2.2 14.5-1.8 0-2.9-1.3-5.1-6-4.9-10.5-12.3-12.9-40.3-13-11.4 0-15.5.3-17 1.4-1.8 1.3-1.9 2.8-1.9 23.8v22.3l17-.1c9.5 0 18.8-.6 21.1-1.2 5.1-1.5 8.5-5 10.5-11 1.1-3.4 2.2-4.8 3.7-5l2.2-.3V138h-2.3c-1.8 0-2.6-1-4-4.9-2.1-5.9-7-10.6-12.9-12.2-2.4-.6-11.3-1.2-19.8-1.3l-15.5-.1v24c0 26.2.5 29.3 5.3 31.5 1.5.6 5.1 1.4 8 1.7 4.6.5 5.2.8 5.2 2.9v2.4H28v-2.5c0-2.2.4-2.5 3.5-2.5 4.8 0 10.1-2.3 11.7-5.2 1.9-3.4 1.9-105.2 0-108.6-1.6-2.9-6.9-5.2-11.7-5.2-3.2 0-3.5-.2-3.5-3v-3h109v14.5zm49 28c0 1.9-.5 2.5-2.1 2.5-2.3 0-6.1 1.8-7.1 3.4-1.2 1.8 0 4.3 6.6 13.8l6.1 8.9 6.2-6.8c8.2-9 10-12.4 8.5-15.7-.8-1.7-2.2-2.7-4.7-3.2-2.8-.5-3.5-1.1-3.5-3V92h35v2.4c0 1.8-.9 2.7-4.3 4-5 1.9-11.3 8.1-23 22.6l-8.5 10.4 13.5 20.1c14.6 21.5 18 25.5 21.8 25.5 1.8 0 2.5.5 2.5 2 0 1.9-.7 2-24.5 2s-24.5-.1-24.5-2c0-1.1.6-2 1.3-2 3.3 0 8.7-2.2 8.7-3.6 0-.8-3.3-6.4-7.4-12.5l-7.3-11-6.5 7.8c-9.5 11.5-10.8 13.4-10.8 15.3 0 1.9 3.9 4 7.5 4 2 0 2.5.5 2.5 2.5v2.5h-35v-2.3c0-1.9.8-2.6 4-3.6 2.1-.6 5.3-2.3 7-3.8 5.9-4.9 26.2-29.4 25.6-30.8-.7-2-24.4-36.5-26.9-39.2-1-1.2-3.5-2.9-5.3-3.8-2.5-1.2-3.4-2.2-3.4-4V92h48v2.5z"/></svg>