<?xml version="1.0" encoding="utf-8"?>
<!-- Generator: Adobe Illustrator 19.0.0, SVG Export Plug-In . SVG Version: 6.00 Build 0)  -->
<svg version="1.1" id="Layer_1" xmlns="http://www.w3.org/2000/svg" xmlns:xlink="http://www.w3.org/1999/xlink" x="0px" y="0px"
	 viewBox="0 0 512 512" style="enable-background:new 0 0 512 512;" xml:space="preserve">
<style type="text/css">
	.st0{fill:#F41112;}
	.st1{clip-path:url(#SVGID_2_);fill:#FFFFFF;}
</style>
<rect class="st0" width="512" height="512"/>
<g>
	<defs>
		<rect id="SVGID_1_" width="512" height="512"/>
	</defs>
	<clipPath id="SVGID_2_">
		<use xlink:href="#SVGID_1_"  style="overflow:visible;"/>
	</clipPath>
	<path class="st1" d="M158.3,173.2H76.8v3.8c9.4,0.4,12.4,1.7,12.4,11.5v66.1c0,10.2-3,11.1-12.4,11.5v3.4h45.7v-3.4
		c-11.5-0.4-14.1-1.7-14.1-11.5v-31.6H125c12.4,0,18.3,3,20.5,14.1h3.8v-34.1h-3.8c-1.7,10.2-5.1,12.8-20.5,12.8h-16.6v-30.7
		c0-3.8,0.9-4.7,5.5-4.7h14.5c19.2,0,22.6,3.4,26,14.1h3.8V173.2z"/>
	<path class="st1" d="M220.2,259.8l-18.8-27.7l10.2-12.8c6.8-8.1,10.7-12.4,16.6-12.8v-3.8h-26.5v3.8c4.7,0,6.8,1.3,6.8,4.3
		c0,2.6-3,6-5.5,8.5l-6,6.8l-6.8-10.2c-1.7-2.1-3-3.8-3-6c0-2.1,2.6-3.4,6.8-3.4v-3.8h-35.4v3.8c5.1,1.3,7.3,4.3,9.8,8.1l17.5,25.6
		l-14.5,17.1c-5.1,6-7.7,8.1-13.7,9v3.4h26v-3.4c-3.4,0-7.3-0.9-7.3-3c0-2.1,2.6-5.1,6.8-10.2l6-7.3l7.3,10.7
		c2.6,3.8,3.8,5.5,3.8,6.8c0,1.7-2.6,2.6-7.3,2.6v3.4h36.3v-3.4C226.6,266.7,224,265.8,220.2,259.8"/>
	<path class="st1" d="M281.2,173.2h-45.7v3.8c9.8,0.4,12.4,1.7,12.4,11.5v66.1c0,10.2-2.6,11.1-12.4,11.5v3.4h44.8v-3.4
		c-10.2-0.4-12.8-1.7-12.8-11.5v-25.2h12.8c24.7,0,38-9.8,38-28.2C317.9,185.6,307.6,173.2,281.2,173.2 M267.1,224v-39.7
		c0-3.4,1.3-5.5,8.1-5.5c12.8,0,22.6,7.3,22.6,20.5C297.8,214.6,289.7,224,267.1,224"/>
	<path class="st1" d="M363.5,201.4c-8.1,0-13.2,6.4-15.8,12.4h-0.4v-10.2c0-1.3,0-2.1-0.9-2.1c-1.3,0-17.1,4.3-24.3,5.5v3.8
		c6.4,0,8.1,1.3,8.1,8.5v38.8c0,6-2.6,7.3-8.1,8.1v3.4h35.4v-3.4c-6.4,0-10.2-1.7-10.2-9v-37.5c2.1-3.4,4.7-5.5,7.3-5.5
		c1.7,0,3,0.9,3.8,1.3c1.3,0.9,3,3,6.8,3c4.3,0,7.7-3.4,7.7-7.7C373.3,206.5,370.3,201.4,363.5,201.4"/>
	<path class="st1" d="M404.5,201.4c-19.2,0-32.4,14.9-32.4,35.4c0,20.5,13.2,35.4,32.4,35.4c19.2,0,32.4-14.9,32.4-35.4
		C436.9,216.3,423.7,201.4,404.5,201.4 M404.5,266.2c-10.2,0-14.1-9-14.1-29.4c0-20.5,4.3-29.4,14.1-29.4c10.2,0,14.1,9,14.1,29.4
		C419,257.3,414.7,266.2,404.5,266.2"/>
	<polygon class="st1" points="77.1,303 102.5,303 102.5,307.1 92,307.1 92,335.6 87.6,335.6 87.6,307.1 77.1,307.1 	"/>
	<path class="st1" d="M112.9,312.3c1.5-0.9,3.3-1.4,5.3-1.4v4.2c-2.5-0.1-4.5,0.6-6.1,2c-1.6,1.4-2.4,3.3-2.7,5.6v13h-4.3V311h4.3
		v5.3C110.3,314.5,111.4,313.2,112.9,312.3"/>
	<path class="st1" d="M136.9,335.6v-3.4c-1.8,2.4-4.7,3.6-8.6,3.6c-1.7,0-3.2-0.3-4.5-1c-1.3-0.7-2.3-1.5-3-2.7
		c-0.7-1.1-1-2.4-1-3.9c0-2.2,0.8-4,2.4-5.2c1.6-1.3,3.9-1.9,6.8-2h7.8v-1.2c0-1.7-0.5-3.1-1.6-4c-1.1-0.9-2.6-1.4-4.7-1.4
		c-2.5,0-5,0.9-7.6,2.7l-1.8-3c1.8-1.1,3.4-2,4.9-2.5c1.5-0.5,3.3-0.8,5.4-0.8c3.1,0,5.4,0.8,7.1,2.3c1.7,1.5,2.5,3.6,2.6,6.3
		l0,16.2H136.9z M134.3,330.7c1.4-1,2.3-2.3,2.5-3.9v-2.5h-7.2c-2,0-3.4,0.3-4.4,0.9c-0.9,0.6-1.4,1.5-1.4,2.8c0,1.3,0.5,2.3,1.4,3
		c1,0.7,2.2,1.1,3.9,1.1C131.2,332.2,132.9,331.7,134.3,330.7"/>
	<path class="st1" d="M171.9,301.1v34.5h-4.3v-4.9c-0.9,1.6-2.2,2.9-3.7,3.8c-1.6,0.9-3.4,1.3-5.5,1.3c-2.3,0-4.4-0.5-6.2-1.6
		c-1.8-1.1-3.2-2.6-4.2-4.5s-1.5-4.1-1.5-6.5c0-2.4,0.5-4.6,1.5-6.4c1-1.9,2.4-3.3,4.2-4.4c1.8-1.1,3.8-1.6,6.1-1.6
		c2.1,0,4,0.4,5.5,1.3c1.6,0.9,2.8,2.1,3.7,3.8v-14.8H171.9z M163.5,331c1.3-0.7,2.2-1.8,3-3.1c0.7-1.3,1.1-2.8,1.1-4.5
		c0-1.7-0.4-3.2-1.1-4.6c-0.7-1.3-1.7-2.4-3-3.1c-1.3-0.7-2.7-1.1-4.3-1.1c-1.6,0-3,0.4-4.3,1.1c-1.3,0.8-2.2,1.8-3,3.1
		c-0.7,1.3-1.1,2.8-1.1,4.5c0,1.7,0.4,3.2,1.1,4.5c0.7,1.3,1.7,2.4,3,3.1c1.3,0.7,2.7,1.1,4.3,1.1
		C160.8,332.1,162.2,331.7,163.5,331"/>
	<path class="st1" d="M199.1,314.2c2,2.3,2.9,5.4,2.9,9.4c0,0.6,0,1.1,0,1.4h-19.5c0.3,2.2,1.3,4,2.8,5.3c1.5,1.3,3.4,2,5.6,2
		c1.5,0,2.8-0.3,4.1-0.8c1.3-0.5,2.4-1.3,3.3-2.2l2.4,2.5c-1.2,1.3-2.7,2.3-4.4,3c-1.7,0.7-3.6,1.1-5.7,1.1c-2.4,0-4.6-0.5-6.4-1.6
		c-1.9-1-3.3-2.5-4.4-4.4c-1-1.9-1.6-4.1-1.6-6.5c0-2.4,0.5-4.6,1.6-6.5c1-1.9,2.5-3.4,4.4-4.4c1.9-1.1,4-1.6,6.4-1.6
		C194.2,310.8,197.1,312,199.1,314.2 M198.1,321.6c-0.1-2.2-0.9-4-2.2-5.3c-1.4-1.3-3.2-1.9-5.4-1.9c-2.2,0-4,0.7-5.4,2
		c-1.4,1.3-2.3,3.1-2.6,5.3H198.1z"/>
	<polygon class="st1" points="220.5,303 225,303 225,331.6 239.3,331.6 239.3,335.6 220.5,335.6 	"/>
	<path class="st1" d="M248.6,301.9c0.5,0.5,0.8,1.2,0.8,2c0,0.8-0.3,1.5-0.8,2c-0.5,0.5-1.2,0.8-1.9,0.8c-0.8,0-1.4-0.3-1.9-0.8
		c-0.5-0.5-0.8-1.2-0.8-2c0-0.8,0.3-1.5,0.8-2c0.5-0.5,1.2-0.8,1.9-0.8C247.4,301.2,248.1,301.4,248.6,301.9 M244.5,311h4.3v24.6
		h-4.3V311z"/>
	<polygon class="st1" points="274.5,335.6 266.6,323.6 261.8,328.6 261.8,335.6 257.5,335.6 257.5,301.1 261.8,301.1 261.8,323.1 
		273.8,311 278.8,311 269.7,320.5 279.7,335.6 	"/>
	<path class="st1" d="M301.8,314.2c2,2.3,2.9,5.4,2.9,9.4c0,0.6,0,1.1,0,1.4h-19.5c0.3,2.2,1.3,4,2.8,5.3c1.5,1.3,3.4,2,5.6,2
		c1.5,0,2.8-0.3,4.1-0.8c1.3-0.5,2.4-1.3,3.3-2.2l2.4,2.5c-1.2,1.3-2.7,2.3-4.4,3c-1.7,0.7-3.6,1.1-5.7,1.1c-2.4,0-4.6-0.5-6.4-1.6
		c-1.9-1-3.3-2.5-4.4-4.4c-1-1.9-1.6-4.1-1.6-6.5c0-2.4,0.5-4.6,1.6-6.5c1-1.9,2.5-3.4,4.3-4.4c1.9-1.1,4-1.6,6.4-1.6
		C296.9,310.8,299.8,312,301.8,314.2 M300.8,321.6c-0.1-2.2-0.9-4-2.2-5.3c-1.4-1.3-3.2-1.9-5.4-1.9c-2.2,0-4,0.7-5.4,2
		c-1.4,1.3-2.3,3.1-2.6,5.3H300.8z"/>
	<path class="st1" d="M337.8,335.6v-3.4c-1.8,2.4-4.7,3.6-8.6,3.6c-1.7,0-3.2-0.3-4.5-1c-1.3-0.7-2.3-1.5-3-2.7
		c-0.7-1.1-1-2.4-1-3.9c0-2.2,0.8-4,2.4-5.2c1.6-1.3,3.9-1.9,6.8-2h7.8v-1.2c0-1.7-0.5-3.1-1.6-4c-1.1-0.9-2.6-1.4-4.7-1.4
		c-2.5,0-5,0.9-7.6,2.7l-1.8-3c1.8-1.1,3.4-2,4.9-2.5c1.5-0.5,3.3-0.8,5.4-0.8c3.1,0,5.4,0.8,7.1,2.3c1.7,1.5,2.5,3.6,2.6,6.3
		l0,16.2H337.8z M335.3,330.7c1.4-1,2.3-2.3,2.5-3.9v-2.5h-7.2c-2,0-3.4,0.3-4.3,0.9c-0.9,0.6-1.4,1.5-1.4,2.8c0,1.3,0.5,2.3,1.4,3
		c1,0.7,2.3,1.1,3.9,1.1C332.1,332.2,333.8,331.7,335.3,330.7"/>
	<path class="st1" d="M384.5,305.9c2.2,1.9,3.3,4.6,3.3,8.1c0,3.6-1.1,6.4-3.4,8.4s-5.4,3-9.4,3h-8.1v10.1h-4.5V303H375
		C379.1,303,382.2,304,384.5,305.9 M381.3,319.6c1.5-1.2,2.2-3,2.2-5.4c0-2.3-0.7-4.1-2.2-5.3c-1.5-1.2-3.6-1.8-6.4-1.8l-7.9,0v14.3
		h7.9C377.6,321.4,379.8,320.8,381.3,319.6"/>
	<path class="st1" d="M401.1,312.3c1.5-0.9,3.3-1.4,5.3-1.4v4.2c-2.5-0.1-4.5,0.6-6.1,2c-1.5,1.4-2.4,3.3-2.6,5.6v13h-4.3V311h4.3
		v5.3C398.4,314.5,399.6,313.2,401.1,312.3"/>
	<path class="st1" d="M427.8,312.4c1.9,1.1,3.4,2.5,4.5,4.4c1.1,1.9,1.6,4,1.6,6.4c0,2.4-0.5,4.6-1.6,6.5c-1.1,1.9-2.6,3.4-4.5,4.4
		c-1.9,1.1-4.1,1.6-6.5,1.6c-2.5,0-4.7-0.5-6.6-1.6c-1.9-1.1-3.4-2.5-4.5-4.4c-1.1-1.9-1.6-4-1.6-6.5c0-2.4,0.5-4.6,1.6-6.4
		c1.1-1.9,2.6-3.3,4.5-4.4c1.9-1.1,4.1-1.6,6.6-1.6C423.8,310.8,425.9,311.4,427.8,312.4 M417,315.7c-1.3,0.7-2.2,1.8-2.9,3.1
		c-0.7,1.3-1,2.8-1,4.5c0,1.7,0.3,3.2,1,4.6c0.7,1.3,1.7,2.4,2.9,3.1c1.3,0.7,2.7,1.1,4.3,1.1c1.6,0,3-0.4,4.3-1.1
		c1.3-0.7,2.2-1.8,2.9-3.1c0.7-1.3,1.1-2.9,1.1-4.6c0-1.7-0.4-3.2-1.1-4.5c-0.7-1.3-1.7-2.4-2.9-3.1c-1.3-0.7-2.7-1.1-4.3-1.1
		C419.7,314.6,418.3,315,417,315.7"/>
</g>
</svg>
