<svg id="Layer_1" xmlns="http://www.w3.org/2000/svg" xmlns:xlink="http://www.w3.org/1999/xlink" viewBox="0 0 512 512"><style>.st0{fill:#f41112}.st1{clip-path:url(#SVGID_2_);fill:#fff}</style><path class="st0" d="M0 0h512v512H0z"/><defs><path id="SVGID_1_" d="M0 0h512v512H0z"/></defs><clipPath id="SVGID_2_"><use xlink:href="#SVGID_1_" overflow="visible"/></clipPath><path class="st1" d="M158.3 173.2H76.8v3.8c9.4.4 12.4 1.7 12.4 11.5v66.1c0 10.2-3 11.1-12.4 11.5v3.4h45.7v-3.4c-11.5-.4-14.1-1.7-14.1-11.5V223H125c12.4 0 18.3 3 20.5 14.1h3.8V203h-3.8c-1.7 10.2-5.1 12.8-20.5 12.8h-16.6v-30.7c0-3.8.9-4.7 5.5-4.7h14.5c19.2 0 22.6 3.4 26 14.1h3.8v-21.3zm61.9 86.6l-18.8-27.7 10.2-12.8c6.8-8.1 10.7-12.4 16.6-12.8v-3.8h-26.5v3.8c4.7 0 6.8 1.3 6.8 4.3 0 2.6-3 6-5.5 8.5l-6 6.8-6.8-10.2c-1.7-2.1-3-3.8-3-6 0-2.1 2.6-3.4 6.8-3.4v-3.8h-35.4v3.8c5.1 1.3 7.3 4.3 9.8 8.1l17.5 25.6-14.5 17.1c-5.1 6-7.7 8.1-13.7 9v3.4h26v-3.4c-3.4 0-7.3-.9-7.3-3s2.6-5.1 6.8-10.2l6-7.3 7.3 10.7c2.6 3.8 3.8 5.5 3.8 6.8 0 1.7-2.6 2.6-7.3 2.6v3.4h36.3v-3.4c-2.7.8-5.3-.1-9.1-6.1m61-86.6h-45.7v3.8c9.8.4 12.4 1.7 12.4 11.5v66.1c0 10.2-2.6 11.1-12.4 11.5v3.4h44.8v-3.4c-10.2-.4-12.8-1.7-12.8-11.5v-25.2h12.8c24.7 0 38-9.8 38-28.2-.4-15.6-10.7-28-37.1-28M267.1 224v-39.7c0-3.4 1.3-5.5 8.1-5.5 12.8 0 22.6 7.3 22.6 20.5 0 15.3-8.1 24.7-30.7 24.7m96.4-22.6c-8.1 0-13.2 6.4-15.8 12.4h-.4v-10.2c0-1.3 0-2.1-.9-2.1-1.3 0-17.1 4.3-24.3 5.5v3.8c6.4 0 8.1 1.3 8.1 8.5v38.8c0 6-2.6 7.3-8.1 8.1v3.4h35.4v-3.4c-6.4 0-10.2-1.7-10.2-9v-37.5c2.1-3.4 4.7-5.5 7.3-5.5 1.7 0 3 .9 3.8 1.3 1.3.9 3 3 6.8 3 4.3 0 7.7-3.4 7.7-7.7.4-4.3-2.6-9.4-9.4-9.4m41 0c-19.2 0-32.4 14.9-32.4 35.4s13.2 35.4 32.4 35.4 32.4-14.9 32.4-35.4-13.2-35.4-32.4-35.4m0 64.8c-10.2 0-14.1-9-14.1-29.4 0-20.5 4.3-29.4 14.1-29.4 10.2 0 14.1 9 14.1 29.4.4 20.5-3.9 29.4-14.1 29.4M77.1 303h25.4v4.1H92v28.5h-4.4v-28.5H77.1zm35.8 9.3c1.5-.9 3.3-1.4 5.3-1.4v4.2c-2.5-.1-4.5.6-6.1 2-1.6 1.4-2.4 3.3-2.7 5.6v13h-4.3V311h4.3v5.3c.9-1.8 2-3.1 3.5-4m24 23.3v-3.4c-1.8 2.4-4.7 3.6-8.6 3.6-1.7 0-3.2-.3-4.5-1-1.3-.7-2.3-1.5-3-2.7-.7-1.1-1-2.4-1-3.9 0-2.2.8-4 2.4-5.2 1.6-1.3 3.9-1.9 6.8-2h7.8v-1.2c0-1.7-.5-3.1-1.6-4-1.1-.9-2.6-1.4-4.7-1.4-2.5 0-5 .9-7.6 2.7l-1.8-3c1.8-1.1 3.4-2 4.9-2.5 1.5-.5 3.3-.8 5.4-.8 3.1 0 5.4.8 7.1 2.3 1.7 1.5 2.5 3.6 2.6 6.3v16.2h-4.2zm-2.6-4.9c1.4-1 2.3-2.3 2.5-3.9v-2.5h-7.2c-2 0-3.4.3-4.4.9-.9.6-1.4 1.5-1.4 2.8 0 1.3.5 2.3 1.4 3 1 .7 2.2 1.1 3.9 1.1 2.1.1 3.8-.4 5.2-1.4m37.6-29.6v34.5h-4.3v-4.9c-.9 1.6-2.2 2.9-3.7 3.8-1.6.9-3.4 1.3-5.5 1.3-2.3 0-4.4-.5-6.2-1.6-1.8-1.1-3.2-2.6-4.2-4.5s-1.5-4.1-1.5-6.5c0-2.4.5-4.6 1.5-6.4 1-1.9 2.4-3.3 4.2-4.4 1.8-1.1 3.8-1.6 6.1-1.6 2.1 0 4 .4 5.5 1.3 1.6.9 2.8 2.1 3.7 3.8v-14.8h4.4zm-8.4 29.9c1.3-.7 2.2-1.8 3-3.1.7-1.3 1.1-2.8 1.1-4.5 0-1.7-.4-3.2-1.1-4.6-.7-1.3-1.7-2.4-3-3.1-1.3-.7-2.7-1.1-4.3-1.1-1.6 0-3 .4-4.3 1.1-1.3.8-2.2 1.8-3 3.1-.7 1.3-1.1 2.8-1.1 4.5 0 1.7.4 3.2 1.1 4.5.7 1.3 1.7 2.4 3 3.1 1.3.7 2.7 1.1 4.3 1.1 1.6.1 3-.3 4.3-1m35.6-16.8c2 2.3 2.9 5.4 2.9 9.4v1.4h-19.5c.3 2.2 1.3 4 2.8 5.3 1.5 1.3 3.4 2 5.6 2 1.5 0 2.8-.3 4.1-.8 1.3-.5 2.4-1.3 3.3-2.2l2.4 2.5c-1.2 1.3-2.7 2.3-4.4 3-1.7.7-3.6 1.1-5.7 1.1-2.4 0-4.6-.5-6.4-1.6-1.9-1-3.3-2.5-4.4-4.4-1-1.9-1.6-4.1-1.6-6.5 0-2.4.5-4.6 1.6-6.5 1-1.9 2.5-3.4 4.4-4.4 1.9-1.1 4-1.6 6.4-1.6 3.6-.1 6.5 1.1 8.5 3.3m-1 7.4c-.1-2.2-.9-4-2.2-5.3-1.4-1.3-3.2-1.9-5.4-1.9s-4 .7-5.4 2c-1.4 1.3-2.3 3.1-2.6 5.3h15.6zm22.4-18.6h4.5v28.6h14.3v4h-18.8zm28.1-1.1c.5.5.8 1.2.8 2s-.3 1.5-.8 2-1.2.8-1.9.8c-.8 0-1.4-.3-1.9-.8s-.8-1.2-.8-2 .3-1.5.8-2 1.2-.8 1.9-.8c.7.1 1.4.3 1.9.8m-4.1 9.1h4.3v24.6h-4.3V311zm30 24.6l-7.9-12-4.8 5v7h-4.3v-34.5h4.3v22l12-12.1h5l-9.1 9.5 10 15.1zm27.3-21.4c2 2.3 2.9 5.4 2.9 9.4v1.4h-19.5c.3 2.2 1.3 4 2.8 5.3 1.5 1.3 3.4 2 5.6 2 1.5 0 2.8-.3 4.1-.8 1.3-.5 2.4-1.3 3.3-2.2l2.4 2.5c-1.2 1.3-2.7 2.3-4.4 3-1.7.7-3.6 1.1-5.7 1.1-2.4 0-4.6-.5-6.4-1.6-1.9-1-3.3-2.5-4.4-4.4-1-1.9-1.6-4.1-1.6-6.5 0-2.4.5-4.6 1.6-6.5 1-1.9 2.5-3.4 4.3-4.4 1.9-1.1 4-1.6 6.4-1.6 3.7-.1 6.6 1.1 8.6 3.3m-1 7.4c-.1-2.2-.9-4-2.2-5.3-1.4-1.3-3.2-1.9-5.4-1.9s-4 .7-5.4 2c-1.4 1.3-2.3 3.1-2.6 5.3h15.6zm37 14v-3.4c-1.8 2.4-4.7 3.6-8.6 3.6-1.7 0-3.2-.3-4.5-1-1.3-.7-2.3-1.5-3-2.7-.7-1.1-1-2.4-1-3.9 0-2.2.8-4 2.4-5.2 1.6-1.3 3.9-1.9 6.8-2h7.8v-1.2c0-1.7-.5-3.1-1.6-4-1.1-.9-2.6-1.4-4.7-1.4-2.5 0-5 .9-7.6 2.7l-1.8-3c1.8-1.1 3.4-2 4.9-2.5 1.5-.5 3.3-.8 5.4-.8 3.1 0 5.4.8 7.1 2.3 1.7 1.5 2.5 3.6 2.6 6.3v16.2h-4.2zm-2.5-4.9c1.4-1 2.3-2.3 2.5-3.9v-2.5h-7.2c-2 0-3.4.3-4.3.9-.9.6-1.4 1.5-1.4 2.8 0 1.3.5 2.3 1.4 3 1 .7 2.3 1.1 3.9 1.1 1.9.1 3.6-.4 5.1-1.4m49.2-24.8c2.2 1.9 3.3 4.6 3.3 8.1 0 3.6-1.1 6.4-3.4 8.4s-5.4 3-9.4 3h-8.1v10.1h-4.5V303H375c4.1 0 7.2 1 9.5 2.9m-3.2 13.7c1.5-1.2 2.2-3 2.2-5.4 0-2.3-.7-4.1-2.2-5.3-1.5-1.2-3.6-1.8-6.4-1.8H367v14.3h7.9c2.7 0 4.9-.6 6.4-1.8m19.8-7.3c1.5-.9 3.3-1.4 5.3-1.4v4.2c-2.5-.1-4.5.6-6.1 2-1.5 1.4-2.4 3.3-2.6 5.6v13h-4.3V311h4.3v5.3c.7-1.8 1.9-3.1 3.4-4m26.7.1c1.9 1.1 3.4 2.5 4.5 4.4 1.1 1.9 1.6 4 1.6 6.4 0 2.4-.5 4.6-1.6 6.5-1.1 1.9-2.6 3.4-4.5 4.4-1.9 1.1-4.1 1.6-6.5 1.6-2.5 0-4.7-.5-6.6-1.6-1.9-1.1-3.4-2.5-4.5-4.4-1.1-1.9-1.6-4-1.6-6.5 0-2.4.5-4.6 1.6-6.4 1.1-1.9 2.6-3.3 4.5-4.4 1.9-1.1 4.1-1.6 6.6-1.6s4.6.6 6.5 1.6m-10.8 3.3c-1.3.7-2.2 1.8-2.9 3.1-.7 1.3-1 2.8-1 4.5 0 1.7.3 3.2 1 4.6.7 1.3 1.7 2.4 2.9 3.1 1.3.7 2.7 1.1 4.3 1.1 1.6 0 3-.4 4.3-1.1 1.3-.7 2.2-1.8 2.9-3.1.7-1.3 1.1-2.9 1.1-4.6 0-1.7-.4-3.2-1.1-4.5-.7-1.3-1.7-2.4-2.9-3.1-1.3-.7-2.7-1.1-4.3-1.1-1.6 0-3 .4-4.3 1.1"/></svg>