<?xml version="1.0" encoding="utf-8"?>
<!-- Generator: Adobe Illustrator 19.0.0, SVG Export Plug-In . SVG Version: 6.00 Build 0)  -->
<svg version="1.1" id="icon-mt5.svg_1_" xmlns="http://www.w3.org/2000/svg" xmlns:xlink="http://www.w3.org/1999/xlink" x="0px"
	 y="0px" viewBox="0 0 60 46" style="enable-background:new 0 0 60 46;" xml:space="preserve">
<style type="text/css">
	.st0{fill:#828286;}
</style>
<g id="icon-mt5.svg">
	<g>
		<path class="st0" d="M25,12l-2,6l-2-6h-2l-1,9h2l0.5-4.5L22,21h2l1.5-4.5L26,21h2l-1-9H25z M28,14h2v7h2v-7h2v-2h-6V14z
			 M37.3,16.4l0.1-2.5L41,14l0.4-2h-6.3l-0.6,6.4c0,0,2.9-1.1,4.1,0c1.2,1.2,0.6,2.8-0.4,3.4c-1,0.6-2.6,1-4,0.4l-0.1,1.4
			c0,0,2.3,0.8,4.5,0s3.5-2.1,3.5-4C42.1,17.9,40.4,15.8,37.3,16.4z M60,34V0H0v34h28v8H13v4h33v-4H32v-8H60z M4,30V4h52v26H4z"/>
	</g>
</g>
</svg>
