<svg xmlns="http://www.w3.org/2000/svg" width="59.84" height="60" viewBox="0 0 59.84 60">
  <defs>
    <style>
      .cls-1 {
        fill: #f41112;
        fill-rule: evenodd;
      }
    </style>
  </defs>
  <path id="con-protection.svg" class="cls-1" d="M1275.97,1446c-0.69-.13-16.39-3.45-25.66-23.14-4.35-9.22-4.18-21.38-4.17-21.9l0.02-1.27,29.81-13.69,1.81,3.82-27.65,12.47c0.08,3.24.6,12.11,3.77,18.85,8.38,17.78,22.83,20.78,23.44,20.9Zm0,0-1.36-3.97c0.6-.11,15.06-3.11,23.43-20.89,3.17-6.74,3.69-15.61,3.77-18.85l-27.65-12.47,1.81-3.82,29.81,13.69,0.02,1.27c0.01,0.52.18,12.68-4.17,21.9C1292.36,1442.55,1276.66,1445.87,1275.97,1446Zm-8.95-22h-4.97v-14h4.97v14Zm8.95-6H1271v-14h4.97v14Zm8.95,8h-4.97v-14h4.97v14Zm8.95-9h-4.97v-6h4.97v6Z" transform="translate(-1245.97 -1386)"/>
</svg>
