<svg xmlns="http://www.w3.org/2000/svg" width="28" height="28" viewBox="0 0 28 28">
  <defs>
    <style>
      .cls-1 {
        fill: #606a70;
        fill-rule: evenodd;
      }
    </style>
  </defs>
  <path id="icon-help.svg" class="cls-1" d="M750.316,4903.02a4.068,4.068,0,0,1,4.66,4.66,28.153,28.153,0,0,1-.409,3.98,21.818,21.818,0,0,0,0,8.67,28.3,28.3,0,0,1,.409,3.98,4.068,4.068,0,0,1-4.66,4.66,28.028,28.028,0,0,1-3.98-.4,21.6,21.6,0,0,0-8.676,0,28.028,28.028,0,0,1-3.98.4,4.068,4.068,0,0,1-4.66-4.66,28.451,28.451,0,0,1,.409-3.98,21.818,21.818,0,0,0,0-8.67,28.153,28.153,0,0,1-.409-3.98,4.068,4.068,0,0,1,4.66-4.66,28.118,28.118,0,0,1,3.98.41,22.1,22.1,0,0,0,8.676,0,28.118,28.118,0,0,1,3.98-.41m0-1.01c-2.616,0-5.663.84-8.318,0.84s-5.7-.84-8.318-0.84a5.046,5.046,0,0,0-5.671,5.67c0,2.61.843,5.66,0.843,8.32s-0.843,5.7-.843,8.31a5.046,5.046,0,0,0,5.671,5.67c2.616,0,5.663-.84,8.318-0.84s5.7,0.84,8.318.84a5.046,5.046,0,0,0,5.671-5.67c0-2.61-.843-5.66-0.843-8.31s0.843-5.71.843-8.32a5.046,5.046,0,0,0-5.671-5.67h0ZM742,4903.86A12.135,12.135,0,1,1,729.863,4916,12.153,12.153,0,0,1,742,4903.86m0-1.01A13.145,13.145,0,1,0,755.143,4916,13.15,13.15,0,0,0,742,4902.85h0Zm-11.681,9.75,2.807,0.46,2.807,0.47a6.6,6.6,0,0,1,1.422-2.15,6.938,6.938,0,0,1,2.215-1.45l-0.469-2.81-0.468-2.81a9.1,9.1,0,0,0-5.734,2.59A9,9,0,0,0,730.317,4912.6Zm23.382,6.73-2.817-.47-2.817-.47-1.39,2.06-2.244,1.61,0.469,2.82,0.469,2.81a9.33,9.33,0,0,0,5.7-2.91C753.864,4921.99,753.7,4919.33,753.7,4919.33Zm-8.33-15.02-0.469,2.81-0.469,2.81,2.276,1.42,1.358,2.25,2.817-.47,2.817-.47a9.478,9.478,0,0,0-2.727-5.89A7.938,7.938,0,0,0,745.369,4904.31ZM742,4909.93a6.065,6.065,0,1,1-6.067,6.07,6.074,6.074,0,0,1,6.067-6.07m0-1.01a7.075,7.075,0,1,0,7.078,7.08,7.079,7.079,0,0,0-7.078-7.08h0Zm-3.367,18.77,0.489-2.94,0.489-2.93-2.288-1.3-1.39-2.06-2.807.47-2.807.47s-0.532,2.36,2.327,5.22A10.263,10.263,0,0,0,738.631,4927.69Z" transform="translate(-728 -4902)"/>
</svg>
