<svg xmlns="http://www.w3.org/2000/svg" width="60" height="46" viewBox="0 0 60 46">
  <defs>
    <style>
      .cls-1 {
        fill: #828286;
        fill-rule: evenodd;
      }
    </style>
  </defs>
  <path id="icon-mt4.svg" class="cls-1" d="M707,2087l2,6,2-6h2l1,9h-2l-0.5-4.5L710,2096h-2l-1.5-4.5L706,2096h-2l1-9h2Zm11,0h2v2h-2v7h-2v-7h-2v-2h4Zm7,0-3.1,7H724v-2l2-2v4h1v2h-1v3h-2v-3h-5l4-9h2Zm21,23H686v-34h60v34Zm-56-4h52v-26H690v26Zm28,14h-4v-13h4v13Zm-19,2v-4h33v4H699Z" transform="translate(-686 -2076)"/>
</svg>
