<svg xmlns="http://www.w3.org/2000/svg" width="60" height="52" viewBox="0 0 60 52">
  <defs>
    <style>
      .cls-1 {
        fill: #f41112;
        fill-rule: evenodd;
      }
    </style>
  </defs>
  <path id="icon-signals.svg" class="cls-1" d="M658,1432c-0.06-.07-6.112-8-15-8H625.5c-6.968,0-10.5-4.21-10.5-12.5s3.532-12.5,10.5-12.5H643c8.944,0,14.94-7.93,15-8l3.052,3.26c-0.289.36-7.225,8.74-18.052,8.74H625.5c-4.617,0-6.5,2.46-6.5,8.5s1.883,8.5,6.5,8.5H643c10.827,0,17.763,8.38,18.052,8.74Zm4,0h-4v-41h4v41Zm0-12v-4a4,4,0,0,0,0-8v-4A8,8,0,0,1,662,1420Zm-44.5-1a7.5,7.5,0,0,1,0-15v4a3.5,3.5,0,0,0,0,7v4Zm25.228,24H629.534l-6.441-20.4,3.814-1.2,5.559,17.6h4.8l-5.178-16.4,3.814-1.2ZM654,1424h-4v-18l4-2v20Z" transform="translate(-610 -1391)"/>
</svg>
