<?xml version="1.0" encoding="utf-8"?>
<!-- Generator: Adobe Illustrator 19.0.0, SVG Export Plug-In . SVG Version: 6.00 Build 0)  -->
<svg version="1.1" id="con-protection.svg_1_" xmlns="http://www.w3.org/2000/svg" xmlns:xlink="http://www.w3.org/1999/xlink"
	 x="0px" y="0px" viewBox="0 0 61 60" style="enable-background:new 0 0 61 60;" xml:space="preserve">
<style type="text/css">
	.st0{fill:#F41112;}
</style>
<g id="con-protection.svg">
	<g>
		<path class="st0" d="M60.8,15l0-1.3L31,0L1.2,13.7l0,1.3c0,0.5-0.2,12.7,4.2,21.9c9.3,19.7,25,23,25.7,23.1
			c0.7-0.1,16.4-3.4,25.7-23.1C61,27.6,60.8,15.5,60.8,15z M53,35.1C46.1,50,34.9,54.5,31,55.7C27.1,54.5,15.9,50,8.9,35.1
			c-3.2-6.7-3.7-15.6-3.8-18.9L31,4.6l25.8,11.6C56.7,19.5,56.2,28.4,53,35.1z M17,38h5V24h-5V38z M26,32h5V18h-5V32z M39.9,26h-5
			v14h5V26z M48.9,25h-5v6h5V25z"/>
	</g>
</g>
</svg>
