<?xml version="1.0" encoding="utf-8"?>
<!-- Generator: Adobe Illustrator 19.0.0, SVG Export Plug-In . SVG Version: 6.00 Build 0)  -->
<svg version="1.1" id="icon-cfds.svg_1_" xmlns="http://www.w3.org/2000/svg" xmlns:xlink="http://www.w3.org/1999/xlink" x="0px"
	 y="0px" viewBox="0 0 58 58" style="enable-background:new 0 0 58 58;" xml:space="preserve">
<style type="text/css">
	.st0{fill:#F41112;}
</style>
<g id="icon-cfds.svg">
	<g>
		<path class="st0" d="M40.9,25c-5.7,0-10,1.2-13.8,2.2c-3.3,0.9-6.5,1.8-10.3,1.8c-7.5,0-15.1-3.8-15.2-3.8L0,28.6
			c0.3,0.2,8.5,4.2,16.9,4.2c4.3,0,7.7-0.9,11.3-1.9c3.7-1,7.6-2.1,12.8-2.1c9.3,0,14.9,3.7,15,3.7l2.1-3.1
			C57.7,29.2,51.4,25,40.9,25z M16,7.8v15.1h3.8V7.8l3.7,4.3l2.8-2.5L17.9,0L9.4,9.6l2.8,2.5L16,7.8z M37.9,16v6.9h4V16l3.6,4.1
			l2.8-2.5L39.9,8l-8.4,9.6l2.8,2.5L37.9,16z M41.8,50.1V35.1H38v15.1l-3.7-4.3l-2.8,2.5l8.4,9.6l8.4-9.6l-2.8-2.5L41.8,50.1z
			 M19.9,42v-6.9h-4V42l-3.6-4.1l-2.8,2.5l8.4,9.6l8.4-9.6l-2.8-2.5L19.9,42z"/>
	</g>
</g>
</svg>
