<?xml version="1.0" encoding="utf-8"?>
<!-- Generator: Adobe Illustrator 19.0.0, SVG Export Plug-In . SVG Version: 6.00 Build 0)  -->
<svg version="1.1" id="icon-pin.svg_1_" xmlns="http://www.w3.org/2000/svg" xmlns:xlink="http://www.w3.org/1999/xlink" x="0px"
	 y="0px" viewBox="0 0 20 30" style="enable-background:new 0 0 20 30;" xml:space="preserve">
<style type="text/css">
	.st0{fill-rule:evenodd;clip-rule:evenodd;fill:#606A70;}
</style>
<g id="icon-pin.svg">
	<g>
		<path class="st0" d="M20,10c0-5.5-4.5-10-10-10C4.5,0,0,4.5,0,10c0,1.6,0.4,3.1,1.1,4.5H1L10,30l9-15.5h-0.1
			C19.6,13.1,20,11.6,20,10z M17.7,14.5l-7.7,14l-7.7-14H2.2C1.4,13.2,1,11.6,1,10c0-5,4-9,9-9c5,0,9,4,9,9
			C19,11.6,18.6,13.2,17.7,14.5L17.7,14.5z M10,5c-2.8,0-5,2.2-5,5c0,2.8,2.2,5,5,5c2.8,0,5-2.2,5-5C15,7.2,12.8,5,10,5z M10,14
			c-2.2,0-4-1.8-4-4c0-2.2,1.8-4,4-4s4,1.8,4,4C14,12.2,12.2,14,10,14z"/>
	</g>
</g>
</svg>
