<svg xmlns="http://www.w3.org/2000/svg" width="60" height="46" viewBox="0 0 60 46">
  <defs>
    <style>
      .cls-1 {
        fill: #828286;
        fill-rule: evenodd;
      }
    </style>
  </defs>
  <path id="icon-ct.svg" class="cls-1" d="M750,2696H690v-34h60v34Zm-56-4h52v-26H694v26Zm28,14h-4v-13h4v13Zm-19,2v-4h33v4H703Zm28.016-33.45h-5.7L723.247,2686h-3.884l2.072-11.45h-4.662V2672h14.243v2.55Zm-12.948,5.09h-2.589c-0.907,0-2.072,1.52-2.59,2.54s0.388,1.27,1.295,1.27h2.589L716,2686h-2.59a3.641,3.641,0,0,1-3.108-5.09,5.463,5.463,0,0,1,5.18-3.82h3.366Z" transform="translate(-690 -2662)"/>
</svg>
