<svg xmlns="http://www.w3.org/2000/svg" width="58" height="58" viewBox="0 0 58 58">
  <defs>
    <style>
      .cls-1 {
        fill: #f41112;
        fill-rule: evenodd;
      }
    </style>
  </defs>
  <path id="icon-cfds.svg" class="cls-1" d="M943.87,1420.8c-8.362,0-16.529-4.04-16.872-4.21l1.678-3.36c0.077,0.04,7.735,3.81,15.194,3.81a36.878,36.878,0,0,0,10.257-1.78,48.5,48.5,0,0,1,13.793-2.23c10.469,0,16.809,4.15,17.074,4.33l-2.083,3.12c-0.05-.03-5.726-3.69-14.991-3.69a44.554,44.554,0,0,0-12.795,2.09A39.836,39.836,0,0,1,943.87,1420.8Zm2.879-9.9H943v-18.05h3.753v18.05Zm3.726-10.79-5.6-6.41-5.6,6.41-2.824-2.48,8.426-9.63,8.427,9.63Zm18.447,10.79h-4.008v-10.03h4.008v10.03Zm3.6-2.77-5.6-6.41-5.6,6.41-2.824-2.48,8.427-9.63,8.426,9.63Zm-3.725,33h-3.754v-18.04H968.8v18.04Zm-1.877,4.86-8.427-9.63,2.824-2.48,5.6,6.41,5.6-6.41,2.824,2.48Zm-20.041-12.88h-4.009v-10.02h4.009v10.02Zm-2,4.86-8.426-9.64,2.824-2.47,5.6,6.41,5.6-6.41,2.824,2.47Z" transform="translate(-927 -1388)"/>
</svg>
