<svg xmlns="http://www.w3.org/2000/svg" width="60" height="46" viewBox="0 0 60 46">
  <defs>
    <style>
      .cls-1 {
        fill: #828286;
        fill-rule: evenodd;
      }
    </style>
  </defs>
  <path id="icon-mt5.svg" class="cls-1" d="M1191,2088l2,6,2-6h2l1,9h-2l-0.5-4.5-1.5,4.5h-2l-1.5-4.5-0.5,4.5h-2l1-9h2Zm11,0h2v2h-2v7h-2v-7h-2v-2h4Zm6.2,9.8a2.149,2.149,0,0,0,.4-3.4c-1.2-1.1-4.1,0-4.1,0l0.6-6.4h6.3l-0.4,2-3.6-.1-0.1,2.5c3.1-.6,4.8,1.5,4.8,3.2,0,1.9-1.3,3.2-3.5,4a7.5,7.5,0,0,1-4.5,0l0.1-1.4A4.586,4.586,0,0,0,1208.2,2097.8ZM1230,2110h-60v-34h60v34Zm-56-4h52v-26h-52v26Zm28,14h-4v-13h4v13Zm-19,2v-4h33v4h-33Z" transform="translate(-1170 -2076)"/>
</svg>
