<?xml version="1.0" encoding="utf-8"?>
<!-- Generator: Adobe Illustrator 19.0.0, SVG Export Plug-In . SVG Version: 6.00 Build 0)  -->
<svg version="1.1" id="icon-help.svg_1_" xmlns="http://www.w3.org/2000/svg" xmlns:xlink="http://www.w3.org/1999/xlink" x="0px"
	 y="0px" viewBox="0 0 28 28" style="enable-background:new 0 0 28 28;" xml:space="preserve">
<style type="text/css">
	.st0{fill:#606A70;}
</style>
<g id="icon-help.svg">
	<g>
		<path class="st0" d="M28,5.7c0-1.7-0.3-3.1-1.4-4.2C25.5,0.3,24,0,22.3,0c-2.6,0-5.7,0.8-8.3,0.8C11.3,0.9,8.3,0,5.7,0
			C4,0,2.5,0.3,1.4,1.4C0.3,2.5,0,4,0,5.7c0,2.6,0.8,5.7,0.8,8.3c0,0,0,0,0,0s0,0,0,0c0,2.7-0.8,5.7-0.8,8.3c0,1.7,0.3,3.1,1.4,4.2
			C2.5,27.6,4,28,5.7,28c2.6,0,5.7-0.8,8.3-0.8c2.7,0,5.7,0.8,8.3,0.8c1.7,0,3.1-0.3,4.2-1.4c1.1-1.1,1.4-2.6,1.4-4.2
			c0-2.6-0.8-5.7-0.8-8.3S28,8.3,28,5.7z M22.3,1c1.6,0,2.7,0.4,3.5,1.1C26.6,2.9,27,4.1,27,5.7c0,1.2-0.2,2.6-0.4,4
			c0,0.1,0,0.2,0,0.3C25.2,6,22,2.8,18,1.5c0.1,0,0.2,0,0.3,0C19.8,1.2,21.1,1,22.3,1z M1.9,14c0-1.2,0.2-2.3,0.5-3.4l2.8,0.5
			l2.3,0.4c-0.3,0.8-0.5,1.7-0.5,2.6c0,0.9,0.2,1.8,0.5,2.6l-2.3,0.4l-2.8,0.5C2,16.3,1.9,15.2,1.9,14C1.9,14,1.9,14,1.9,14
			C1.9,14,1.9,14,1.9,14z M7.9,14c0-3.3,2.7-6.1,6.1-6.1c3.3,0,6.1,2.7,6.1,6.1s-2.7,6.1-6.1,6.1C10.7,20.1,7.9,17.3,7.9,14z
			 M16.9,5.1l-0.4,2.3c-0.8-0.3-1.6-0.5-2.5-0.5c-0.9,0-1.7,0.2-2.5,0.5l-0.4-2.3l-0.5-2.8C11.7,2,12.8,1.9,14,1.9
			c1.2,0,2.3,0.2,3.4,0.5L16.9,5.1z M10.6,25.6l0.5-2.9l0.4-2.1c0.8,0.3,1.6,0.5,2.5,0.5c0.9,0,1.7-0.2,2.5-0.5l0.4,2.3l0.5,2.8
			c-1.1,0.3-2.2,0.5-3.4,0.5C12.8,26.1,11.7,26,10.6,25.6z M25.7,17.3l-2.8-0.5l-2.3-0.4c0.3-0.8,0.5-1.6,0.5-2.5s-0.2-1.7-0.5-2.5
			l2.3-0.4l2.8-0.5c0.3,1.1,0.5,2.2,0.5,3.3C26.1,15.2,26,16.3,25.7,17.3z M1.4,9.7C1.2,8.2,1,6.9,1,5.7c0-1.6,0.4-2.7,1.1-3.5
			C2.9,1.4,4.1,1,5.7,1c1.2,0,2.6,0.2,4,0.4c0.1,0,0.2,0,0.3,0C6,2.8,2.8,6,1.5,10C1.5,9.9,1.4,9.8,1.4,9.7z M9.7,26.6
			c-1.4,0.2-2.8,0.4-4,0.4c-1.6,0-2.7-0.4-3.5-1.1C1.4,25.1,1,23.9,1,22.3c0-1.2,0.2-2.6,0.4-4c0-0.1,0-0.2,0-0.3
			c1.3,4,4.5,7.2,8.5,8.5C9.9,26.5,9.8,26.5,9.7,26.6z M25.8,25.8c-0.8,0.8-1.9,1.1-3.5,1.1c-1.2,0-2.6-0.2-4-0.4
			c-0.1,0-0.2,0-0.3,0c4-1.3,7.2-4.5,8.5-8.5c0,0.1,0,0.2,0,0.3c0.2,1.4,0.4,2.8,0.4,4C27,23.9,26.6,25.1,25.8,25.8z"/>
	</g>
</g>
</svg>
