<?xml version="1.0" encoding="utf-8"?>
<!-- Generator: Adobe Illustrator 19.0.0, SVG Export Plug-In . SVG Version: 6.00 Build 0)  -->
<svg version="1.1" id="icon-newspaper.svg_1_" xmlns="http://www.w3.org/2000/svg" xmlns:xlink="http://www.w3.org/1999/xlink"
	 x="0px" y="0px" viewBox="0 0 30 28" style="enable-background:new 0 0 30 28;" xml:space="preserve">
<style type="text/css">
	.st0{fill:#606A70;}
</style>
<g id="icon-newspaper.svg">
	<g>
		<path class="st0" d="M30,0L30,0L6,0v27H1V3H0v24h0v1h0v0h1v0h28v0h1L30,0L30,0z M29,27H7V1h22V27z M4,3H3v22h1V3z M26,4H10v2h16V4
			z M14,9h-4v1h4V9z M14,11h-4v1h4V11z M14,13h-4v1h4V13z M14,15h-4v1h4V15z M26,19H10v1h16V19z M26,21H10v1h16V21z M26,23H10v1h16
			V23z M22,16v-3h-1v3H22z M24,16v-4h-1v4H24z M25,16h1V9h-1V16z M18,16v-2h-1v2H18z M20,16v-5h-1v5H20z"/>
	</g>
</g>
</svg>
