<svg xmlns="http://www.w3.org/2000/svg" width="30" height="30" viewBox="0 0 30 30">
  <defs>
    <style>
      .cls-1 {
        fill: #606a70;
        fill-rule: evenodd;
      }
    </style>
  </defs>
  <path id="social-twitter.svg" class="cls-1" d="M1253,4931a15,15,0,1,0-15-15A15.005,15.005,0,0,0,1253,4931Zm0-.99a14.01,14.01,0,1,0-14.01-14.01A14.007,14.007,0,0,0,1253,4930.01Zm5.48-19.85a3.267,3.267,0,0,0-2.4-1.15,3.36,3.36,0,0,0-3.29,3.49,3.591,3.591,0,0,0,.09.81,9.243,9.243,0,0,1-6.78-3.81,3.764,3.764,0,0,0-.44,1.79,3.7,3.7,0,0,0,1.46,2.98,3.07,3.07,0,0,1-1.49-.46v0.05a3.54,3.54,0,0,0,2.64,3.52,2.809,2.809,0,0,1-.87.11,3.179,3.179,0,0,1-.62-0.06,3.369,3.369,0,0,0,3.07,2.49,6.279,6.279,0,0,1-4.08,1.51,6.527,6.527,0,0,1-.78-0.05,8.779,8.779,0,0,0,5.04,1.6c6.05,0.01,9.35-5.35,9.35-9.99,0-.15,0-0.3-0.01-0.46a6.531,6.531,0,0,0,1.64-1.79,6.338,6.338,0,0,1-1.88.53,3.463,3.463,0,0,0,1.44-1.92A6.109,6.109,0,0,1,1258.48,4910.16Z" transform="translate(-1238 -4901)"/>
</svg>
